{
	"asset":{
		"generator":"Khronos glTF Blender I/O v4.0.44",
		"version":"2.0"
	},
	"scene":0,
	"scenes":[
		{
			"name":"Scene",
			"nodes":[
				0
			]
		}
	],
	"nodes":[
		{
			"mesh":0,
			"name":"Igloo1"
		}
	],
	"meshes":[
		{
			"name":"Igloo1",
			"primitives":[
				{
					"attributes":{
						"POSITION":0,
						"NORMAL":1
					},
					"indices":2
				}
			]
		}
	],
	"accessors":[
		{
			"bufferView":0,
			"componentType":5126,
			"count":146168,
			"max":[
				31.705791473388672,
				14.139009475708008,
				6.963142595850513e-08
			],
			"min":[
				8.861991318553919e-07,
				-1.0183616723224986e-06,
				-25.399993896484375
			],
			"type":"VEC3"
		},
		{
			"bufferView":1,
			"componentType":5126,
			"count":146168,
			"type":"VEC3"
		},
		{
			"bufferView":2,
			"componentType":5125,
			"count":146190,
			"type":"SCALAR"
		}
	],
	"bufferViews":[
		{
			"buffer":0,
			"byteLength":1754016,
			"byteOffset":0,
			"target":34962
		},
		{
			"buffer":0,
			"byteLength":1754016,
			"byteOffset":1754016,
			"target":34962
		},
		{
			"buffer":0,
			"byteLength":584760,
			"byteOffset":3508032,
			"target":34963
		}
	],
	"buffers":[
		{
			"byteLength":4092792,
			"uri":"igloo.bin"
		}
	]
}
